<mxfile host="app.diagrams.net" modified="2023-11-17T06:40:05.007Z" agent="Mozilla/5.0 (Windows NT 10.0; Win64; x64) AppleWebKit/537.36 (KHTML, like Gecko) Chrome/119.0.0.0 Safari/537.36" etag="-ixDVdx1NvQ7tQR3zl0Z" version="22.1.2" type="github">
  <diagram name="Page-1" id="2YBvvXClWsGukQMizWep">
    <mxGraphModel dx="1965" dy="503" grid="1" gridSize="10" guides="1" tooltips="1" connect="1" arrows="1" fold="1" page="1" pageScale="1" pageWidth="850" pageHeight="1100" math="0" shadow="0">
      <root>
        <mxCell id="0" />
        <mxCell id="1" parent="0" />
        <mxCell id="aM9ryv3xv72pqoxQDRHE-1" value="Списковая форма доступных услуг" style="shape=umlLifeline;perimeter=lifelinePerimeter;whiteSpace=wrap;html=1;container=0;dropTarget=0;collapsible=0;recursiveResize=0;outlineConnect=0;portConstraint=eastwest;newEdgeStyle={&quot;edgeStyle&quot;:&quot;elbowEdgeStyle&quot;,&quot;elbow&quot;:&quot;vertical&quot;,&quot;curved&quot;:0,&quot;rounded&quot;:0};" parent="1" vertex="1">
          <mxGeometry x="20" y="30" width="120" height="390" as="geometry" />
        </mxCell>
        <mxCell id="NHBoh-PslbqA8P48BV1k-15" value="" style="html=1;points=[];perimeter=orthogonalPerimeter;outlineConnect=0;targetShapes=umlLifeline;portConstraint=eastwest;newEdgeStyle={&quot;edgeStyle&quot;:&quot;elbowEdgeStyle&quot;,&quot;elbow&quot;:&quot;vertical&quot;,&quot;curved&quot;:0,&quot;rounded&quot;:0};" vertex="1" parent="aM9ryv3xv72pqoxQDRHE-1">
          <mxGeometry x="55" y="90" width="10" height="30" as="geometry" />
        </mxCell>
        <mxCell id="aM9ryv3xv72pqoxQDRHE-5" value="Списковая форма заказов" style="shape=umlLifeline;perimeter=lifelinePerimeter;whiteSpace=wrap;html=1;container=0;dropTarget=0;collapsible=0;recursiveResize=0;outlineConnect=0;portConstraint=eastwest;newEdgeStyle={&quot;edgeStyle&quot;:&quot;elbowEdgeStyle&quot;,&quot;elbow&quot;:&quot;vertical&quot;,&quot;curved&quot;:0,&quot;rounded&quot;:0};" parent="1" vertex="1">
          <mxGeometry x="159" y="30" width="100" height="390" as="geometry" />
        </mxCell>
        <mxCell id="NHBoh-PslbqA8P48BV1k-1" value="Сотрудник" style="shape=umlActor;verticalLabelPosition=bottom;verticalAlign=top;html=1;outlineConnect=0;" vertex="1" parent="1">
          <mxGeometry x="-92" y="28" width="15" height="30" as="geometry" />
        </mxCell>
        <mxCell id="NHBoh-PslbqA8P48BV1k-6" value="" style="endArrow=none;html=1;rounded=0;sourcePerimeterSpacing=0;startSize=5;dashed=1;" edge="1" parent="1" source="NHBoh-PslbqA8P48BV1k-30">
          <mxGeometry width="50" height="50" relative="1" as="geometry">
            <mxPoint x="-85.34" y="80" as="sourcePoint" />
            <mxPoint x="-85" y="420" as="targetPoint" />
          </mxGeometry>
        </mxCell>
        <mxCell id="NHBoh-PslbqA8P48BV1k-7" value="Форма редактирования заказа" style="shape=umlLifeline;perimeter=lifelinePerimeter;whiteSpace=wrap;html=1;container=0;dropTarget=0;collapsible=0;recursiveResize=0;outlineConnect=0;portConstraint=eastwest;newEdgeStyle={&quot;edgeStyle&quot;:&quot;elbowEdgeStyle&quot;,&quot;elbow&quot;:&quot;vertical&quot;,&quot;curved&quot;:0,&quot;rounded&quot;:0};" vertex="1" parent="1">
          <mxGeometry x="281" y="30" width="160" height="390" as="geometry" />
        </mxCell>
        <mxCell id="NHBoh-PslbqA8P48BV1k-24" value="" style="html=1;points=[];perimeter=orthogonalPerimeter;outlineConnect=0;targetShapes=umlLifeline;portConstraint=eastwest;newEdgeStyle={&quot;edgeStyle&quot;:&quot;elbowEdgeStyle&quot;,&quot;elbow&quot;:&quot;vertical&quot;,&quot;curved&quot;:0,&quot;rounded&quot;:0};" vertex="1" parent="NHBoh-PslbqA8P48BV1k-7">
          <mxGeometry x="75" y="150" width="10" height="30" as="geometry" />
        </mxCell>
        <mxCell id="NHBoh-PslbqA8P48BV1k-11" value="" style="endArrow=none;html=1;rounded=0;sourcePerimeterSpacing=0;startSize=5;dashed=1;" edge="1" parent="1" target="NHBoh-PslbqA8P48BV1k-10">
          <mxGeometry width="50" height="50" relative="1" as="geometry">
            <mxPoint x="-85.34" y="80" as="sourcePoint" />
            <mxPoint x="-85" y="340" as="targetPoint" />
          </mxGeometry>
        </mxCell>
        <mxCell id="NHBoh-PslbqA8P48BV1k-10" value="" style="html=1;points=[];perimeter=orthogonalPerimeter;outlineConnect=0;targetShapes=umlLifeline;portConstraint=eastwest;newEdgeStyle={&quot;edgeStyle&quot;:&quot;elbowEdgeStyle&quot;,&quot;elbow&quot;:&quot;vertical&quot;,&quot;curved&quot;:0,&quot;rounded&quot;:0};" vertex="1" parent="1">
          <mxGeometry x="-90.5" y="90" width="10" height="30" as="geometry" />
        </mxCell>
        <mxCell id="NHBoh-PslbqA8P48BV1k-16" value="" style="endArrow=block;html=1;rounded=0;endFill=1;" edge="1" parent="1" source="NHBoh-PslbqA8P48BV1k-10" target="NHBoh-PslbqA8P48BV1k-15">
          <mxGeometry width="50" height="50" relative="1" as="geometry">
            <mxPoint x="-40" y="140" as="sourcePoint" />
            <mxPoint x="60" y="140" as="targetPoint" />
          </mxGeometry>
        </mxCell>
        <mxCell id="NHBoh-PslbqA8P48BV1k-17" value="Получить список &lt;br&gt;услуг" style="edgeLabel;html=1;align=center;verticalAlign=middle;resizable=0;points=[];" vertex="1" connectable="0" parent="NHBoh-PslbqA8P48BV1k-16">
          <mxGeometry x="-0.1778" y="2" relative="1" as="geometry">
            <mxPoint as="offset" />
          </mxGeometry>
        </mxCell>
        <mxCell id="NHBoh-PslbqA8P48BV1k-19" value="" style="endArrow=none;html=1;rounded=0;sourcePerimeterSpacing=0;startSize=5;dashed=1;" edge="1" parent="1" source="NHBoh-PslbqA8P48BV1k-10" target="NHBoh-PslbqA8P48BV1k-18">
          <mxGeometry width="50" height="50" relative="1" as="geometry">
            <mxPoint x="-85" y="120" as="sourcePoint" />
            <mxPoint x="-85" y="340" as="targetPoint" />
          </mxGeometry>
        </mxCell>
        <mxCell id="NHBoh-PslbqA8P48BV1k-18" value="" style="html=1;points=[];perimeter=orthogonalPerimeter;outlineConnect=0;targetShapes=umlLifeline;portConstraint=eastwest;newEdgeStyle={&quot;edgeStyle&quot;:&quot;elbowEdgeStyle&quot;,&quot;elbow&quot;:&quot;vertical&quot;,&quot;curved&quot;:0,&quot;rounded&quot;:0};" vertex="1" parent="1">
          <mxGeometry x="-90.5" y="150" width="10" height="30" as="geometry" />
        </mxCell>
        <mxCell id="NHBoh-PslbqA8P48BV1k-20" value="" style="endArrow=none;html=1;rounded=0;exitX=1.05;exitY=0;exitDx=0;exitDy=0;exitPerimeter=0;dashed=1;dashPattern=8 8;endFill=0;startArrow=open;startFill=0;" edge="1" parent="1" source="NHBoh-PslbqA8P48BV1k-18" target="NHBoh-PslbqA8P48BV1k-15">
          <mxGeometry width="50" height="50" relative="1" as="geometry">
            <mxPoint x="-60" y="170" as="sourcePoint" />
            <mxPoint x="40" y="170" as="targetPoint" />
          </mxGeometry>
        </mxCell>
        <mxCell id="NHBoh-PslbqA8P48BV1k-21" value="" style="endArrow=block;html=1;rounded=0;endFill=1;" edge="1" parent="1">
          <mxGeometry width="50" height="50" relative="1" as="geometry">
            <mxPoint x="-80.5" y="179" as="sourcePoint" />
            <mxPoint x="210" y="179" as="targetPoint" />
          </mxGeometry>
        </mxCell>
        <mxCell id="NHBoh-PslbqA8P48BV1k-22" value="" style="endArrow=block;html=1;rounded=0;endFill=1;" edge="1" parent="1" target="NHBoh-PslbqA8P48BV1k-24">
          <mxGeometry width="50" height="50" relative="1" as="geometry">
            <mxPoint x="208.07142857142844" y="179" as="sourcePoint" />
            <mxPoint x="330" y="170" as="targetPoint" />
          </mxGeometry>
        </mxCell>
        <mxCell id="NHBoh-PslbqA8P48BV1k-23" value="Редактировать" style="edgeLabel;html=1;align=center;verticalAlign=middle;resizable=0;points=[];" vertex="1" connectable="0" parent="NHBoh-PslbqA8P48BV1k-22">
          <mxGeometry x="0.1321" relative="1" as="geometry">
            <mxPoint x="-14" y="-1" as="offset" />
          </mxGeometry>
        </mxCell>
        <mxCell id="NHBoh-PslbqA8P48BV1k-25" value="Заказ" style="shape=umlLifeline;perimeter=lifelinePerimeter;whiteSpace=wrap;html=1;container=0;dropTarget=0;collapsible=0;recursiveResize=0;outlineConnect=0;portConstraint=eastwest;newEdgeStyle={&quot;edgeStyle&quot;:&quot;elbowEdgeStyle&quot;,&quot;elbow&quot;:&quot;vertical&quot;,&quot;curved&quot;:0,&quot;rounded&quot;:0};movable=1;resizable=1;rotatable=1;deletable=1;editable=1;locked=0;connectable=1;" vertex="1" parent="1">
          <mxGeometry x="410" y="210" width="90" height="210" as="geometry" />
        </mxCell>
        <mxCell id="NHBoh-PslbqA8P48BV1k-26" value="" style="html=1;points=[];perimeter=orthogonalPerimeter;outlineConnect=0;targetShapes=umlLifeline;portConstraint=eastwest;newEdgeStyle={&quot;edgeStyle&quot;:&quot;elbowEdgeStyle&quot;,&quot;elbow&quot;:&quot;vertical&quot;,&quot;curved&quot;:0,&quot;rounded&quot;:0};" vertex="1" parent="NHBoh-PslbqA8P48BV1k-25">
          <mxGeometry x="40" y="50" width="10" height="30" as="geometry" />
        </mxCell>
        <mxCell id="NHBoh-PslbqA8P48BV1k-27" value="" style="endArrow=block;html=1;rounded=0;arcSize=20;endFill=1;" edge="1" parent="1">
          <mxGeometry width="50" height="50" relative="1" as="geometry">
            <mxPoint x="366" y="210.1699999999999" as="sourcePoint" />
            <mxPoint x="410" y="210.17" as="targetPoint" />
          </mxGeometry>
        </mxCell>
        <mxCell id="NHBoh-PslbqA8P48BV1k-28" value="new" style="edgeLabel;html=1;align=center;verticalAlign=middle;resizable=0;points=[];" vertex="1" connectable="0" parent="NHBoh-PslbqA8P48BV1k-27">
          <mxGeometry x="-0.1902" relative="1" as="geometry">
            <mxPoint y="-1" as="offset" />
          </mxGeometry>
        </mxCell>
        <mxCell id="NHBoh-PslbqA8P48BV1k-29" value="" style="endArrow=none;html=1;rounded=0;dashed=1;dashPattern=8 8;startArrow=open;startFill=0;" edge="1" parent="1" source="NHBoh-PslbqA8P48BV1k-30" target="NHBoh-PslbqA8P48BV1k-26">
          <mxGeometry width="50" height="50" relative="1" as="geometry">
            <mxPoint x="-50" y="280" as="sourcePoint" />
            <mxPoint x="310" y="370" as="targetPoint" />
          </mxGeometry>
        </mxCell>
        <mxCell id="NHBoh-PslbqA8P48BV1k-31" value="" style="endArrow=none;html=1;rounded=0;sourcePerimeterSpacing=0;startSize=5;dashed=1;" edge="1" parent="1" source="NHBoh-PslbqA8P48BV1k-18" target="NHBoh-PslbqA8P48BV1k-30">
          <mxGeometry width="50" height="50" relative="1" as="geometry">
            <mxPoint x="-85" y="180" as="sourcePoint" />
            <mxPoint x="-85" y="340" as="targetPoint" />
          </mxGeometry>
        </mxCell>
        <mxCell id="NHBoh-PslbqA8P48BV1k-30" value="" style="html=1;points=[];perimeter=orthogonalPerimeter;outlineConnect=0;targetShapes=umlLifeline;portConstraint=eastwest;newEdgeStyle={&quot;edgeStyle&quot;:&quot;elbowEdgeStyle&quot;,&quot;elbow&quot;:&quot;vertical&quot;,&quot;curved&quot;:0,&quot;rounded&quot;:0};" vertex="1" parent="1">
          <mxGeometry x="-90.5" y="290" width="10" height="30" as="geometry" />
        </mxCell>
        <mxCell id="NHBoh-PslbqA8P48BV1k-33" value="" style="endArrow=none;html=1;rounded=0;dashed=1;dashPattern=8 8;startArrow=open;startFill=0;" edge="1" parent="1">
          <mxGeometry width="50" height="50" relative="1" as="geometry">
            <mxPoint x="-85.5" y="190" as="sourcePoint" />
            <mxPoint x="79.5" y="190" as="targetPoint" />
          </mxGeometry>
        </mxCell>
        <mxCell id="NHBoh-PslbqA8P48BV1k-34" value="" style="endArrow=block;html=1;rounded=0;endFill=1;" edge="1" parent="1">
          <mxGeometry width="50" height="50" relative="1" as="geometry">
            <mxPoint x="-85.5" y="210" as="sourcePoint" />
            <mxPoint x="80" y="210" as="targetPoint" />
          </mxGeometry>
        </mxCell>
        <mxCell id="NHBoh-PslbqA8P48BV1k-35" value="" style="endArrow=none;html=1;rounded=0;dashed=1;dashPattern=8 8;startArrow=open;startFill=0;" edge="1" parent="1">
          <mxGeometry width="50" height="50" relative="1" as="geometry">
            <mxPoint x="-86" y="250" as="sourcePoint" />
            <mxPoint x="79" y="250" as="targetPoint" />
          </mxGeometry>
        </mxCell>
        <mxCell id="NHBoh-PslbqA8P48BV1k-36" value="ПозицияЗаказа" style="shape=umlLifeline;perimeter=lifelinePerimeter;whiteSpace=wrap;html=1;container=0;dropTarget=0;collapsible=0;recursiveResize=0;outlineConnect=0;portConstraint=eastwest;newEdgeStyle={&quot;edgeStyle&quot;:&quot;elbowEdgeStyle&quot;,&quot;elbow&quot;:&quot;vertical&quot;,&quot;curved&quot;:0,&quot;rounded&quot;:0};" vertex="1" parent="1">
          <mxGeometry x="500" y="320" width="100" height="100" as="geometry" />
        </mxCell>
        <mxCell id="NHBoh-PslbqA8P48BV1k-37" value="" style="html=1;points=[];perimeter=orthogonalPerimeter;outlineConnect=0;targetShapes=umlLifeline;portConstraint=eastwest;newEdgeStyle={&quot;edgeStyle&quot;:&quot;elbowEdgeStyle&quot;,&quot;elbow&quot;:&quot;vertical&quot;,&quot;curved&quot;:0,&quot;rounded&quot;:0};" vertex="1" parent="NHBoh-PslbqA8P48BV1k-36">
          <mxGeometry x="45" y="50" width="10" height="30" as="geometry" />
        </mxCell>
        <mxCell id="NHBoh-PslbqA8P48BV1k-38" value="" style="endArrow=block;html=1;rounded=0;endFill=1;" edge="1" parent="1">
          <mxGeometry width="50" height="50" relative="1" as="geometry">
            <mxPoint x="-80.5" y="320" as="sourcePoint" />
            <mxPoint x="454.5" y="320" as="targetPoint" />
          </mxGeometry>
        </mxCell>
        <mxCell id="NHBoh-PslbqA8P48BV1k-39" value="" style="endArrow=block;html=1;rounded=0;endFill=1;" edge="1" parent="1" source="NHBoh-PslbqA8P48BV1k-25">
          <mxGeometry width="50" height="50" relative="1" as="geometry">
            <mxPoint x="466.00333333333333" y="320" as="sourcePoint" />
            <mxPoint x="500" y="320" as="targetPoint" />
          </mxGeometry>
        </mxCell>
        <mxCell id="NHBoh-PslbqA8P48BV1k-40" value="new" style="edgeLabel;html=1;align=center;verticalAlign=middle;resizable=0;points=[];" vertex="1" connectable="0" parent="NHBoh-PslbqA8P48BV1k-39">
          <mxGeometry x="0.0389" relative="1" as="geometry">
            <mxPoint x="-4" as="offset" />
          </mxGeometry>
        </mxCell>
        <mxCell id="NHBoh-PslbqA8P48BV1k-41" value="" style="endArrow=none;html=1;rounded=0;startArrow=open;startFill=0;dashed=1;dashPattern=8 8;" edge="1" parent="1">
          <mxGeometry width="50" height="50" relative="1" as="geometry">
            <mxPoint x="455.177419354839" y="400" as="sourcePoint" />
            <mxPoint x="545.0000000000002" y="400" as="targetPoint" />
          </mxGeometry>
        </mxCell>
        <mxCell id="NHBoh-PslbqA8P48BV1k-42" value="" style="endArrow=none;html=1;rounded=0;startArrow=open;startFill=0;dashed=1;dashPattern=8 8;" edge="1" parent="1" target="NHBoh-PslbqA8P48BV1k-25">
          <mxGeometry width="50" height="50" relative="1" as="geometry">
            <mxPoint x="210" y="400" as="sourcePoint" />
            <mxPoint x="310" y="400" as="targetPoint" />
          </mxGeometry>
        </mxCell>
        <mxCell id="NHBoh-PslbqA8P48BV1k-43" value="" style="endArrow=none;html=1;rounded=0;dashed=1;dashPattern=8 8;startArrow=open;startFill=0;" edge="1" parent="1">
          <mxGeometry width="50" height="50" relative="1" as="geometry">
            <mxPoint x="-85" y="400" as="sourcePoint" />
            <mxPoint x="210" y="400" as="targetPoint" />
          </mxGeometry>
        </mxCell>
      </root>
    </mxGraphModel>
  </diagram>
</mxfile>
